<?xml version="1.0" encoding="utf-8"?>
<!-- Generator: Adobe Illustrator 27.3.1, SVG Export Plug-In . SVG Version: 6.00 Build 0)  -->
<svg version="1.1" id="Capa_1" xmlns="http://www.w3.org/2000/svg" xmlns:xlink="http://www.w3.org/1999/xlink" x="0px" y="0px"
	 viewBox="0 0 151.9 163.55" style="enable-background:new 0 0 151.9 163.55;" xml:space="preserve">
<style type="text/css">
	.st0{fill:#FFFFFF;}
	.st1{fill:none;stroke:#000000;stroke-width:8;stroke-miterlimit:10;}
	.st2{fill:none;}
	.st3{fill:#586FB4;}
	.st4{fill:#688C5A;}
	.st5{fill:#A53737;}
	.st6{fill:#DA9B19;}
	.st7{fill:#78549E;}
	.st8{fill:#3A3A3A;}
	.st9{fill:#5659A3;}
	.st10{clip-path:url(#SVGID_00000066516672535316616330000002011749036346384556_);fill:#5659A3;}
	
		.st11{clip-path:url(#SVGID_00000066516672535316616330000002011749036346384556_);fill:none;stroke:#FFFFFF;stroke-width:9;stroke-miterlimit:10;}
	
		.st12{clip-path:url(#SVGID_00000066516672535316616330000002011749036346384556_);fill:none;stroke:#FFFFFF;stroke-width:9;stroke-linecap:round;stroke-miterlimit:10;}
	
		.st13{clip-path:url(#SVGID_00000066516672535316616330000002011749036346384556_);fill:none;stroke:#FFFFFF;stroke-width:9;stroke-linecap:round;stroke-linejoin:round;stroke-miterlimit:10;}
	
		.st14{clip-path:url(#SVGID_00000066516672535316616330000002011749036346384556_);fill:#5659A3;stroke:#FFFFFF;stroke-width:9;stroke-miterlimit:10;}
	.st15{clip-path:url(#SVGID_00000031899972672196673530000007369393195465941912_);}
	.st16{clip-path:url(#SVGID_00000042733401799530494780000014544988133611419036_);}
	.st17{clip-path:url(#SVGID_00000029759264120926669530000001885642342127797430_);}
	.st18{clip-path:url(#SVGID_00000178918047518735834100000014755858916997771703_);fill:#FFFFFF;}
	.st19{clip-path:url(#SVGID_00000178918047518735834100000014755858916997771703_);}
</style>
<g>
	<defs>
		<path id="SVGID_00000173868566129788747160000007302802505702850979_" d="M134.13,91.37c4.13-7.75,3.17-17.05-3.51-23.11
			c-0.56-0.51-0.59-0.92-0.36-1.58c2.91-8.46-0.61-18.07-8.28-22.6c-0.88-0.52-1.26-1.06-1.24-2.15
			c0.13-7.34-4.21-13.34-11.14-15.66c-0.54-0.18-1.03-0.71-1.39-1.19c-1.28-1.71-2.33-3.63-3.76-5.19
			c-6.51-7.11-17.53-7.49-24.57-0.88c-1.45,1.36-2.67,2.96-4.03,4.49c-0.29-0.42-0.56-0.86-0.88-1.27
			c-4.43-5.83-10.17-8.87-17.59-7.65c-6.02,0.98-10.3,4.58-13.28,9.81c-0.44,0.76-0.65,1.61-1.74,1.95
			c-6.96,2.2-11.29,8.24-11.17,15.59c0.02,1.08-0.34,1.63-1.23,2.16c-7.68,4.53-11.21,14.14-8.29,22.59
			c0.27,0.77,0.04,1.13-0.45,1.68c-1.22,1.37-2.54,2.72-3.43,4.3c-3.54,6.25-3.14,12.57,0.03,18.85c0.42,0.84,0.96,1.5,0.3,2.61
			c-4.42,7.36-3.58,15.5,2.11,22.01c0.3,0.34,0.49,0.93,0.45,1.37c-0.27,2.98-0.02,5.9,1.12,8.66c3.09,7.48,8.47,11.97,16.76,12.59
			c0.45,0.03,1,0.47,1.27,0.87c2.34,3.54,5.42,6.23,9.32,7.86c1.84,0.77,3.81,1.2,5.73,1.79c1.67,0,3.34,0,5.01,0
			c10.72,0,21.44,0,32.16,0c1.67,0,3.34,0,5.01,0c0.28-0.1,0.56-0.23,0.85-0.28c5.55-1.04,10.07-3.76,13.41-8.31
			c0.89-1.21,1.67-1.91,3.37-2.07c9.89-0.98,17.55-10.58,16.56-20.57c-0.1-0.98,0.14-1.61,0.78-2.32c5.16-5.64,6.1-14.57,2.14-21.03
			C133.41,93.45,133.48,92.61,134.13,91.37z"/>
	</defs>
	<clipPath id="SVGID_00000173839576089348891250000003861950271328964997_">
		<use xlink:href="#SVGID_00000173868566129788747160000007302802505702850979_"  style="overflow:visible;"/>
	</clipPath>
	<g style="clip-path:url(#SVGID_00000173839576089348891250000003861950271328964997_);">
		<rect x="1.35" y="-2.08" class="st9" width="145.28" height="156.48"/>
	</g>
	<g style="clip-path:url(#SVGID_00000173839576089348891250000003861950271328964997_);">
		<path class="st0" d="M136.65,113.41c-14.6-6-36.82-24.84-38.78-43.22c-0.94-8.81-2.9-14.66-6.16-18.41
			c-3.13-3.6-7.63-5.35-14.16-5.52c-12.21-0.31-17.21,8.86-23.79,29.56c-6.72,21.15-37.57,27.22-38.88,27.47l-0.64-3.36
			c0.3-0.06,30.15-5.94,36.25-25.14c6.02-18.96,11.5-32.37,27.14-31.94c7.55,0.2,12.84,2.33,16.65,6.7
			c3.75,4.31,5.97,10.75,6.99,20.3c1.88,17.65,24.53,35.43,36.67,40.42L136.65,113.41z"/>
	</g>
	<g style="clip-path:url(#SVGID_00000173839576089348891250000003861950271328964997_);">
		<path class="st0" d="M134.91,94.55c-0.95-0.53-23.2-13.08-23.72-25.43c-0.46-10.96-3.86-17.72-3.9-17.78
			c-0.04-0.08-2.66-5.29-8-10.23c-7.06-6.52-15.29-9.52-24.47-8.91C53,33.65,46.61,46.42,40.52,62.96
			c-5.98,16.25-29.24,23.9-30.22,24.22l-1.05-3.26c0.23-0.07,22.66-7.46,28.06-22.14c2.83-7.67,6.05-15.68,11.62-21.78
			c6.2-6.8,14.59-10.47,25.67-11.21c10.06-0.67,19.44,2.75,27.12,9.9c5.76,5.36,8.53,10.88,8.64,11.11
			c0.14,0.27,3.77,7.41,4.26,19.18c0.36,8.66,15.98,19.24,21.96,22.58L134.91,94.55z"/>
	</g>
	<g style="clip-path:url(#SVGID_00000173839576089348891250000003861950271328964997_);">
		<path class="st0" d="M133.93,126.48c-0.16,0-0.32-0.02-0.48-0.07c-1.24-0.36-30.46-9.1-40.41-26.8c-0.46-0.82-0.17-1.87,0.65-2.33
			c0.82-0.46,1.87-0.17,2.33,0.65c9.27,16.48,38.1,25.11,38.39,25.19c0.91,0.27,1.43,1.22,1.16,2.12
			C135.36,126,134.67,126.48,133.93,126.48z"/>
	</g>
	<g style="clip-path:url(#SVGID_00000173839576089348891250000003861950271328964997_);">
		<path class="st0" d="M126.68,137.23c-0.14,0-0.29-0.02-0.43-0.06c-1.17-0.3-28.63-7.65-37.18-22.88
			c-0.46-0.82-0.17-1.87,0.66-2.33c0.82-0.46,1.87-0.17,2.33,0.66c7.83,13.96,34.79,21.17,35.06,21.24
			c0.91,0.24,1.46,1.18,1.22,2.09C128.14,136.72,127.44,137.23,126.68,137.23z"/>
	</g>
	<g style="clip-path:url(#SVGID_00000173839576089348891250000003861950271328964997_);">
		<path class="st0" d="M53.02,152.64c-0.61,0-1.2-0.33-1.51-0.9c-0.45-0.83-0.14-1.87,0.7-2.32c0.21-0.11,20.84-11.27,29.29-20.12
			c0.62-0.65,1.63-0.71,2.32-0.14c0.17,0.14,17.03,13.89,24.16,15.84c0.91,0.25,1.45,1.19,1.2,2.1c-0.25,0.91-1.19,1.45-2.1,1.2
			c-6.72-1.84-20.1-12.24-24.22-15.52c-9.32,8.99-28.19,19.2-29.03,19.65C53.57,152.57,53.29,152.64,53.02,152.64z"/>
	</g>
	<g style="clip-path:url(#SVGID_00000173839576089348891250000003861950271328964997_);">
		<path class="st0" d="M25.32,133.6c-0.71,0-1.37-0.44-1.62-1.15c-0.31-0.89,0.16-1.87,1.06-2.18c0.39-0.14,39.25-13.9,48.33-40.87
			c0.3-0.9,1.27-1.38,2.17-1.08c0.9,0.3,1.38,1.27,1.08,2.17c-4,11.87-14.01,23.08-28.96,32.41c-11.2,6.99-21.08,10.45-21.5,10.59
			C25.69,133.57,25.5,133.6,25.32,133.6z"/>
	</g>
	<g style="clip-path:url(#SVGID_00000173839576089348891250000003861950271328964997_);">
		<path class="st0" d="M40.69,143.4l-1.2-3.2c0.1-0.04,9.87-3.75,20.32-11.01c9.53-6.62,21.6-17.64,25-32.53
			c3.44-15.01,1.93-23.45,0.06-27.89c-1.84-4.38-4.28-5.6-4.3-5.61l-0.21-0.12c-0.09-0.05-2.46-1.49-5.18-0.27
			c-2.65,1.2-6.23,5.18-8.27,17.37c-1.86,11.11-11.09,21.24-26.69,29.3c-11.59,5.99-22.46,8.72-22.91,8.84l-0.83-3.32
			c0.43-0.11,42.96-10.97,47.05-35.38c1.85-11.03,5.32-17.75,10.31-19.96c4.07-1.8,7.62,0.1,8.27,0.48
			c1.37,0.7,12.84,7.58,6.04,37.32c-2.9,12.65-12.04,24.62-26.45,34.62C50.9,139.52,41.1,143.24,40.69,143.4z"/>
	</g>
	<g style="clip-path:url(#SVGID_00000173839576089348891250000003861950271328964997_);">
		<g>
			<circle class="st9" cx="77.46" cy="62.05" r="7.52"/>
		</g>
		<g>
			<path class="st0" d="M77.46,71.29c-5.09,0-9.23-4.14-9.23-9.23s4.14-9.23,9.23-9.23c5.09,0,9.23,4.14,9.23,9.23
				S82.55,71.29,77.46,71.29z M77.46,56.25c-3.2,0-5.81,2.61-5.81,5.81c0,3.2,2.61,5.81,5.81,5.81c3.2,0,5.81-2.61,5.81-5.81
				C83.27,58.85,80.66,56.25,77.46,56.25z"/>
		</g>
	</g>
	<g style="clip-path:url(#SVGID_00000173839576089348891250000003861950271328964997_);">
		<g>
			<circle class="st9" cx="47.73" cy="82.43" r="7.52"/>
		</g>
		<g>
			<path class="st0" d="M47.73,91.66c-5.09,0-9.23-4.14-9.23-9.23c0-5.09,4.14-9.23,9.23-9.23c5.09,0,9.23,4.14,9.23,9.23
				C56.96,87.52,52.82,91.66,47.73,91.66z M47.73,76.62c-3.2,0-5.81,2.61-5.81,5.81c0,3.2,2.61,5.81,5.81,5.81
				c3.2,0,5.81-2.61,5.81-5.81C53.54,79.22,50.93,76.62,47.73,76.62z"/>
		</g>
	</g>
	<g style="clip-path:url(#SVGID_00000173839576089348891250000003861950271328964997_);">
		<g>
			<circle class="st9" cx="104.66" cy="86.21" r="7.52"/>
		</g>
		<g>
			<path class="st0" d="M104.66,95.44c-5.09,0-9.23-4.14-9.23-9.23c0-5.09,4.14-9.23,9.23-9.23c5.09,0,9.23,4.14,9.23,9.23
				C113.9,91.3,109.75,95.44,104.66,95.44z M104.66,80.4c-3.2,0-5.81,2.61-5.81,5.81c0,3.2,2.61,5.81,5.81,5.81
				c3.2,0,5.81-2.61,5.81-5.81C110.47,83.01,107.87,80.4,104.66,80.4z"/>
		</g>
	</g>
	<g style="clip-path:url(#SVGID_00000173839576089348891250000003861950271328964997_);">
		<g>
			<circle class="st9" cx="68.87" cy="123.57" r="7.52"/>
		</g>
		<g>
			<path class="st0" d="M68.87,132.8c-5.09,0-9.23-4.14-9.23-9.23s4.14-9.23,9.23-9.23c5.09,0,9.23,4.14,9.23,9.23
				S73.96,132.8,68.87,132.8z M68.87,117.76c-3.2,0-5.81,2.61-5.81,5.81c0,3.2,2.61,5.81,5.81,5.81c3.2,0,5.81-2.61,5.81-5.81
				C74.68,120.36,72.07,117.76,68.87,117.76z"/>
		</g>
	</g>
	<g style="clip-path:url(#SVGID_00000173839576089348891250000003861950271328964997_);">
		<g>
			<circle class="st9" cx="45.99" cy="46.27" r="7.52"/>
		</g>
		<g>
			<path class="st0" d="M45.99,55.51c-5.09,0-9.23-4.14-9.23-9.23s4.14-9.23,9.23-9.23s9.23,4.14,9.23,9.23S51.08,55.51,45.99,55.51
				z M45.99,40.46c-3.2,0-5.81,2.61-5.81,5.81c0,3.2,2.61,5.81,5.81,5.81c3.2,0,5.81-2.61,5.81-5.81
				C51.8,43.07,49.19,40.46,45.99,40.46z"/>
		</g>
	</g>
	<g style="clip-path:url(#SVGID_00000173839576089348891250000003861950271328964997_);">
		<g>
			<circle class="st9" cx="98.08" cy="37.02" r="7.52"/>
		</g>
		<g>
			<path class="st0" d="M98.08,46.25c-5.09,0-9.23-4.14-9.23-9.23s4.14-9.23,9.23-9.23s9.23,4.14,9.23,9.23
				S103.18,46.25,98.08,46.25z M98.08,31.21c-3.2,0-5.81,2.61-5.81,5.81c0,3.2,2.61,5.81,5.81,5.81c3.2,0,5.81-2.61,5.81-5.81
				C103.89,33.81,101.29,31.21,98.08,31.21z"/>
		</g>
	</g>
</g>
</svg>
