<?xml version="1.0" encoding="utf-8"?>
<!-- Generator: Adobe Illustrator 27.3.1, SVG Export Plug-In . SVG Version: 6.00 Build 0)  -->
<svg version="1.1" id="Capa_1" xmlns="http://www.w3.org/2000/svg" xmlns:xlink="http://www.w3.org/1999/xlink" x="0px" y="0px"
	 viewBox="0 0 578.04 202.21" style="enable-background:new 0 0 578.04 202.21;" xml:space="preserve">
<style type="text/css">
	.st0{fill:#FFFFFF;}
	.st1{fill:none;stroke:#000000;stroke-width:8;stroke-miterlimit:10;}
	.st2{fill:none;}
	.st3{fill:#586FB4;}
	.st4{fill:#688C5A;}
	.st5{fill:#A53737;}
	.st6{fill:#DA9B19;}
	.st7{fill:#78549E;}
	.st8{fill:#3A3A3A;}
	.st9{fill:#5659A3;}
	.st10{clip-path:url(#SVGID_00000135670744726295268020000016818631569166661520_);fill:#5659A3;}
	
		.st11{clip-path:url(#SVGID_00000135670744726295268020000016818631569166661520_);fill:none;stroke:#FFFFFF;stroke-width:9;stroke-miterlimit:10;}
	
		.st12{clip-path:url(#SVGID_00000135670744726295268020000016818631569166661520_);fill:none;stroke:#FFFFFF;stroke-width:9;stroke-linecap:round;stroke-miterlimit:10;}
	
		.st13{clip-path:url(#SVGID_00000135670744726295268020000016818631569166661520_);fill:none;stroke:#FFFFFF;stroke-width:9;stroke-linecap:round;stroke-linejoin:round;stroke-miterlimit:10;}
	
		.st14{clip-path:url(#SVGID_00000135670744726295268020000016818631569166661520_);fill:#5659A3;stroke:#FFFFFF;stroke-width:9;stroke-miterlimit:10;}
	.st15{clip-path:url(#SVGID_00000042719234811602111930000005708147236373671296_);}
	.st16{clip-path:url(#SVGID_00000092453797108243898450000011756201545745961606_);}
	.st17{clip-path:url(#SVGID_00000008128790259706199480000010271746597965727368_);}
	.st18{clip-path:url(#SVGID_00000102533926352595582050000017033221583147350144_);fill:#FFFFFF;}
	.st19{clip-path:url(#SVGID_00000102533926352595582050000017033221583147350144_);}
</style>
<g>
	<path class="st0" d="M198.97,95.38h-14.23V34.26h14.23V95.38z M227.7,70.32h-29.86V58.36h29.86V70.32z M226.65,34.26h14.15v61.12
		h-14.15V34.26z"/>
	<path class="st0" d="M274.15,96.08c-3.96,0-7.45-0.76-10.48-2.27c-3.03-1.51-5.39-3.84-7.07-6.99c-1.69-3.14-2.53-7.1-2.53-11.88
		V48.4h13.62v24.45c0,3.96,0.83,6.85,2.49,8.69c1.66,1.83,4,2.75,7.03,2.75c2.1,0,3.96-0.46,5.59-1.4c1.63-0.93,2.93-2.33,3.89-4.19
		c0.96-1.86,1.44-4.19,1.44-6.99V48.4h13.53v46.98h-12.92V82.37l2.36,3.84c-1.63,3.26-3.96,5.72-6.99,7.38
		C281.08,95.25,277.76,96.08,274.15,96.08z"/>
	<path class="st0" d="M337.63,96.08c-5.36,0-10.04-1.05-14.06-3.14s-7.13-4.96-9.34-8.6c-2.21-3.64-3.32-7.79-3.32-12.44
		c0-4.66,1.06-8.82,3.19-12.49c2.12-3.67,5.09-6.53,8.91-8.6c3.81-2.07,8.11-3.1,12.88-3.1c4.6,0,8.75,0.99,12.44,2.97
		c3.7,1.98,6.62,4.77,8.78,8.38c2.15,3.61,3.23,7.95,3.23,13.01c0,0.52-0.03,1.12-0.09,1.79c-0.06,0.67-0.12,1.3-0.17,1.88h-38.16
		v-7.95h31l-5.33,2.36c0.06-2.45-0.41-4.57-1.4-6.37c-0.99-1.8-2.36-3.22-4.1-4.24c-1.75-1.02-3.79-1.53-6.11-1.53
		c-2.33,0-4.38,0.51-6.16,1.53c-1.78,1.02-3.16,2.45-4.15,4.28c-0.99,1.83-1.48,4-1.48,6.5v2.1c0,2.62,0.58,4.89,1.75,6.81
		c1.16,1.92,2.76,3.39,4.8,4.41c2.04,1.02,4.48,1.53,7.33,1.53c2.44,0,4.61-0.38,6.5-1.13c1.89-0.76,3.62-1.89,5.2-3.41l7.25,7.86
		c-2.15,2.45-4.86,4.32-8.12,5.63C345.64,95.43,341.88,96.08,337.63,96.08z"/>
	<path class="st0" d="M369.42,95.38V30.59h13.62v64.79H369.42z"/>
	<path class="st0" d="M395.7,95.38V30.59h13.62v64.79H395.7z"/>
	<path class="st0" d="M436.48,96.08c-3.61,0-6.72-0.63-9.34-1.88c-2.62-1.25-4.64-2.95-6.07-5.11c-1.43-2.15-2.14-4.57-2.14-7.25
		c0-2.74,0.68-5.17,2.05-7.29c1.37-2.12,3.54-3.77,6.5-4.93c2.97-1.16,6.87-1.75,11.7-1.75h12.4v7.86h-11c-3.2,0-5.4,0.52-6.59,1.57
		c-1.19,1.05-1.79,2.36-1.79,3.93c0,1.75,0.68,3.13,2.05,4.15c1.37,1.02,3.22,1.53,5.54,1.53c2.33,0,4.41-0.52,6.24-1.57
		c1.83-1.05,3.13-2.65,3.89-4.8l2.1,6.38c-0.99,2.91-2.79,5.17-5.41,6.77C443.99,95.28,440.61,96.08,436.48,96.08z M450.8,95.38
		v-9.17l-0.87-2.01V67.79c0-2.91-0.89-5.18-2.66-6.81c-1.78-1.63-4.5-2.45-8.16-2.45c-2.5,0-4.96,0.39-7.38,1.18
		c-2.42,0.79-4.5,1.85-6.24,3.19l-4.8-9.52c2.56-1.86,5.65-3.27,9.26-4.23c3.61-0.96,7.28-1.44,11-1.44
		c7.16,0,12.72,1.69,16.68,5.07c3.96,3.38,5.94,8.64,5.94,15.8v26.81H450.8z"/>
	<path class="st0" d="M491.66,96.08c-4.02,0-7.86-0.48-11.53-1.44c-3.67-0.96-6.61-2.17-8.82-3.62l4.45-9.69
		c2.21,1.28,4.79,2.34,7.73,3.19c2.94,0.84,5.83,1.27,8.69,1.27c3.14,0,5.37-0.38,6.68-1.13c1.31-0.76,1.96-1.8,1.96-3.14
		c0-1.11-0.51-1.93-1.53-2.49c-1.02-0.55-2.36-0.97-4.02-1.27c-1.66-0.29-3.51-0.58-5.54-0.87c-2.04-0.29-4.06-0.7-6.07-1.22
		c-2.01-0.52-3.87-1.27-5.59-2.23c-1.72-0.96-3.09-2.28-4.1-3.97c-1.02-1.69-1.53-3.87-1.53-6.55c0-2.97,0.87-5.6,2.62-7.9
		c1.75-2.3,4.22-4.09,7.42-5.37c3.2-1.28,7.07-1.92,11.61-1.92c3.26,0,6.53,0.37,9.82,1.09c3.29,0.73,6.07,1.73,8.34,3.01
		l-4.63,9.69c-2.21-1.28-4.47-2.18-6.77-2.71c-2.3-0.52-4.5-0.79-6.59-0.79c-3.14,0-5.41,0.41-6.81,1.22
		c-1.4,0.82-2.1,1.86-2.1,3.14c0,1.17,0.52,2.05,1.57,2.66s2.41,1.06,4.1,1.35c1.69,0.29,3.55,0.58,5.59,0.87
		c2.04,0.29,4.04,0.7,6.02,1.22c1.98,0.52,3.83,1.27,5.54,2.23c1.72,0.96,3.08,2.29,4.1,3.97c1.02,1.69,1.53,3.87,1.53,6.55
		c0,2.85-0.87,5.4-2.62,7.64c-1.75,2.24-4.26,4-7.55,5.28C500.38,95.44,496.38,96.08,491.66,96.08z"/>
</g>
<g>
	<path class="st0" d="M191.82,156.84c-2.6,0-4.93-0.59-7.02-1.77c-2.08-1.18-3.72-2.82-4.92-4.94c-1.2-2.12-1.79-4.61-1.79-7.48
		c0-2.87,0.6-5.36,1.79-7.48c1.19-2.12,2.83-3.76,4.92-4.94c2.08-1.18,4.42-1.77,7.02-1.77c2.32,0,4.35,0.51,6.09,1.54
		c1.74,1.02,3.09,2.58,4.05,4.66c0.96,2.08,1.43,4.75,1.43,7.99c0,3.21-0.46,5.87-1.38,7.99s-2.25,3.68-3.97,4.69
		C196.31,156.34,194.24,156.84,191.82,156.84z M193.15,150.29c1.33,0,2.53-0.3,3.58-0.9c1.06-0.6,1.9-1.48,2.54-2.64
		c0.63-1.16,0.95-2.53,0.95-4.1c0-1.6-0.32-2.97-0.95-4.1c-0.63-1.13-1.48-1.99-2.54-2.59c-1.06-0.6-2.25-0.9-3.58-0.9
		c-1.3,0-2.48,0.3-3.53,0.9c-1.06,0.6-1.9,1.46-2.54,2.59c-0.63,1.13-0.95,2.49-0.95,4.1c0,1.57,0.32,2.94,0.95,4.1
		c0.63,1.16,1.48,2.04,2.54,2.64C190.67,149.99,191.85,150.29,193.15,150.29z M200.42,156.43v-5.63l0.15-8.19l-0.51-8.14v-16.03
		h7.99v38H200.42z"/>
	<path class="st0" d="M229.1,156.84c-3.14,0-5.89-0.62-8.25-1.84c-2.36-1.23-4.18-2.91-5.48-5.04c-1.3-2.13-1.95-4.57-1.95-7.3
		s0.62-5.17,1.87-7.32c1.25-2.15,2.99-3.83,5.22-5.04c2.24-1.21,4.75-1.82,7.55-1.82c2.7,0,5.13,0.58,7.3,1.74
		c2.17,1.16,3.88,2.8,5.15,4.92c1.26,2.12,1.9,4.66,1.9,7.63c0,0.31-0.02,0.66-0.05,1.05c-0.03,0.39-0.07,0.76-0.1,1.1h-22.38v-4.66
		h18.18l-3.12,1.38c0.03-1.43-0.24-2.68-0.82-3.74c-0.58-1.06-1.38-1.89-2.41-2.48c-1.02-0.6-2.22-0.9-3.58-0.9
		c-1.37,0-2.57,0.3-3.61,0.9c-1.04,0.6-1.85,1.43-2.43,2.51c-0.58,1.08-0.87,2.35-0.87,3.82v1.23c0,1.54,0.34,2.87,1.02,4
		c0.68,1.13,1.62,1.99,2.82,2.59c1.19,0.6,2.63,0.9,4.3,0.9c1.43,0,2.71-0.22,3.82-0.67c1.11-0.44,2.13-1.11,3.05-2l4.25,4.61
		c-1.26,1.43-2.85,2.54-4.76,3.3C233.79,156.46,231.59,156.84,229.1,156.84z"/>
	<path class="st0" d="M262.8,156.43v-35.85h15.52c3.21,0,5.97,0.52,8.3,1.56c2.32,1.04,4.11,2.54,5.38,4.48
		c1.26,1.95,1.89,4.25,1.89,6.91c0,2.7-0.63,5.01-1.89,6.94c-1.26,1.93-3.06,3.42-5.38,4.48c-2.32,1.06-5.09,1.59-8.3,1.59h-10.96
		l3.79-3.74v13.62H262.8z M271.15,143.73l-3.79-3.94h10.5c2.53,0,4.44-0.55,5.74-1.64c1.3-1.09,1.95-2.63,1.95-4.61
		s-0.65-3.51-1.95-4.58c-1.3-1.08-3.21-1.61-5.74-1.61h-10.5l3.79-3.94V143.73z"/>
	<path class="st0" d="M299.21,156.43v-27.55h7.63v7.84l-1.08-2.3c0.82-1.95,2.13-3.42,3.94-4.43c1.81-1.01,4.01-1.51,6.61-1.51v7.43
		c-0.31-0.07-0.61-0.12-0.9-0.15c-0.29-0.03-0.57-0.05-0.85-0.05c-2.25,0-4.05,0.63-5.38,1.9c-1.33,1.26-2,3.21-2,5.84v13.01H299.21
		z"/>
	<path class="st0" d="M333.88,156.84c-2.9,0-5.49-0.62-7.76-1.84c-2.27-1.23-4.05-2.91-5.35-5.04c-1.3-2.13-1.95-4.57-1.95-7.3
		c0-2.77,0.65-5.22,1.95-7.35c1.3-2.13,3.08-3.81,5.35-5.02c2.27-1.21,4.86-1.82,7.76-1.82c2.94,0,5.55,0.61,7.84,1.82
		c2.29,1.21,4.08,2.89,5.38,5.02c1.3,2.13,1.95,4.58,1.95,7.35s-0.65,5.21-1.95,7.32c-1.3,2.12-3.09,3.79-5.38,5.02
		C339.43,156.23,336.82,156.84,333.88,156.84z M333.88,150.29c1.37,0,2.57-0.3,3.61-0.9c1.04-0.6,1.88-1.48,2.51-2.64
		c0.63-1.16,0.95-2.53,0.95-4.1c0-1.6-0.31-2.97-0.95-4.1c-0.63-1.13-1.47-1.99-2.51-2.59s-2.23-0.9-3.56-0.9s-2.53,0.3-3.59,0.9
		s-1.9,1.46-2.53,2.59c-0.63,1.13-0.95,2.49-0.95,4.1c0,1.57,0.32,2.94,0.95,4.1c0.63,1.16,1.47,2.04,2.53,2.64
		C331.41,149.99,332.59,150.29,333.88,150.29z"/>
	<path class="st0" d="M354.37,166.37v-37.49H362v5.63l-0.15,8.19l0.51,8.14v15.52H354.37z M370.6,156.84c-2.29,0-4.3-0.51-6.04-1.54
		s-3.1-2.59-4.07-4.69c-0.97-2.1-1.46-4.75-1.46-7.96c0-3.24,0.46-5.91,1.38-7.99c0.92-2.08,2.26-3.64,4.02-4.66
		c1.76-1.02,3.82-1.54,6.17-1.54c2.63,0,4.98,0.59,7.04,1.77c2.07,1.18,3.7,2.83,4.92,4.94s1.82,4.61,1.82,7.48
		c0,2.9-0.61,5.4-1.82,7.5c-1.21,2.1-2.85,3.74-4.92,4.92C375.58,156.25,373.23,156.84,370.6,156.84z M369.27,150.29
		c1.33,0,2.52-0.31,3.56-0.92c1.04-0.62,1.88-1.49,2.51-2.64c0.63-1.14,0.95-2.5,0.95-4.07c0-1.6-0.32-2.97-0.95-4.1
		c-0.63-1.13-1.47-1.99-2.51-2.59c-1.04-0.6-2.23-0.9-3.56-0.9c-1.33,0-2.53,0.3-3.58,0.9c-1.06,0.6-1.9,1.46-2.54,2.59
		s-0.95,2.49-0.95,4.1c0,1.57,0.32,2.93,0.95,4.07c0.63,1.14,1.48,2.02,2.54,2.64C366.75,149.98,367.94,150.29,369.27,150.29z"/>
	<path class="st0" d="M402.77,156.84c-2.9,0-5.49-0.62-7.76-1.84c-2.27-1.23-4.05-2.91-5.35-5.04c-1.3-2.13-1.95-4.57-1.95-7.3
		c0-2.77,0.65-5.22,1.95-7.35c1.3-2.13,3.08-3.81,5.35-5.02c2.27-1.21,4.86-1.82,7.76-1.82c2.94,0,5.55,0.61,7.84,1.82
		c2.29,1.21,4.08,2.89,5.38,5.02c1.3,2.13,1.95,4.58,1.95,7.35s-0.65,5.21-1.95,7.32c-1.3,2.12-3.09,3.79-5.38,5.02
		C408.31,156.23,405.7,156.84,402.77,156.84z M402.77,150.29c1.37,0,2.57-0.3,3.61-0.9c1.04-0.6,1.88-1.48,2.51-2.64
		c0.63-1.16,0.95-2.53,0.95-4.1c0-1.6-0.32-2.97-0.95-4.1s-1.47-1.99-2.51-2.59s-2.23-0.9-3.56-0.9c-1.33,0-2.53,0.3-3.59,0.9
		s-1.9,1.46-2.53,2.59c-0.63,1.13-0.95,2.49-0.95,4.1c0,1.57,0.32,2.94,0.95,4.1c0.63,1.16,1.48,2.04,2.53,2.64
		C400.29,149.99,401.47,150.29,402.77,150.29z M398,125.35l6.91-7.38h8.55l-9.22,7.38H398z"/>
	<path class="st0" d="M432.52,156.84c-2.36,0-4.61-0.28-6.76-0.85c-2.15-0.56-3.88-1.27-5.17-2.12l2.61-5.68
		c1.3,0.75,2.81,1.37,4.53,1.87c1.72,0.5,3.42,0.74,5.1,0.74c1.84,0,3.15-0.22,3.92-0.67c0.77-0.44,1.15-1.06,1.15-1.84
		c0-0.65-0.3-1.13-0.9-1.46c-0.6-0.32-1.38-0.57-2.36-0.74c-0.97-0.17-2.06-0.34-3.25-0.51c-1.2-0.17-2.38-0.41-3.56-0.72
		c-1.18-0.31-2.27-0.74-3.28-1.31c-1.01-0.56-1.81-1.34-2.41-2.33c-0.6-0.99-0.9-2.27-0.9-3.84c0-1.74,0.51-3.29,1.54-4.63
		s2.47-2.4,4.35-3.15c1.88-0.75,4.15-1.13,6.81-1.13c1.91,0,3.83,0.21,5.76,0.64c1.93,0.43,3.56,1.02,4.89,1.77l-2.71,5.68
		c-1.3-0.75-2.62-1.28-3.97-1.59s-2.64-0.46-3.87-0.46c-1.84,0-3.18,0.24-4,0.72c-0.82,0.48-1.23,1.09-1.23,1.84
		c0,0.68,0.31,1.2,0.92,1.56c0.62,0.36,1.42,0.62,2.41,0.79s2.08,0.34,3.28,0.51c1.19,0.17,2.37,0.41,3.53,0.72
		c1.16,0.31,2.25,0.74,3.25,1.31s1.81,1.34,2.41,2.33s0.9,2.27,0.9,3.84c0,1.67-0.51,3.17-1.54,4.48s-2.5,2.35-4.43,3.1
		C437.64,156.47,435.29,156.84,432.52,156.84z"/>
	<path class="st0" d="M454.44,125.04c-1.5,0-2.71-0.43-3.64-1.28s-1.38-1.91-1.38-3.18c0-1.26,0.46-2.32,1.38-3.17
		s2.13-1.28,3.64-1.28c1.47,0,2.67,0.4,3.61,1.2c0.94,0.8,1.41,1.84,1.41,3.1c0,1.33-0.46,2.43-1.38,3.3
		C457.16,124.6,455.94,125.04,454.44,125.04z M450.45,156.43v-27.55h7.99v27.55H450.45z"/>
	<path class="st0" d="M462.59,135.64v-6.15h19.1v6.15H462.59z M477.13,156.84c-3.24,0-5.77-0.83-7.58-2.48
		c-1.81-1.66-2.71-4.12-2.71-7.4v-24.17h8.04v24.02c0,1.16,0.3,2.07,0.9,2.71c0.6,0.65,1.41,0.97,2.43,0.97
		c1.3,0,2.39-0.34,3.28-1.02l2.1,5.63c-0.79,0.58-1.75,1.02-2.89,1.31C479.55,156.7,478.36,156.84,477.13,156.84z"/>
	<path class="st0" d="M500.33,156.84c-2.9,0-5.49-0.62-7.76-1.84c-2.27-1.23-4.05-2.91-5.35-5.04c-1.3-2.13-1.95-4.57-1.95-7.3
		c0-2.77,0.65-5.22,1.95-7.35c1.3-2.13,3.08-3.81,5.35-5.02c2.27-1.21,4.86-1.82,7.76-1.82c2.94,0,5.55,0.61,7.84,1.82
		c2.29,1.21,4.08,2.89,5.38,5.02c1.3,2.13,1.95,4.58,1.95,7.35s-0.65,5.21-1.95,7.32c-1.3,2.12-3.09,3.79-5.38,5.02
		C505.88,156.23,503.27,156.84,500.33,156.84z M500.33,150.29c1.37,0,2.57-0.3,3.61-0.9c1.04-0.6,1.88-1.48,2.51-2.64
		c0.63-1.16,0.95-2.53,0.95-4.1c0-1.6-0.32-2.97-0.95-4.1s-1.47-1.99-2.51-2.59s-2.23-0.9-3.56-0.9c-1.33,0-2.53,0.3-3.59,0.9
		s-1.9,1.46-2.53,2.59c-0.63,1.13-0.95,2.49-0.95,4.1c0,1.57,0.32,2.94,0.95,4.1c0.63,1.16,1.48,2.04,2.53,2.64
		C497.85,149.99,499.03,150.29,500.33,150.29z"/>
</g>
<g>
	<defs>
		<path id="SVGID_00000163060365339848397600000011594827854892911795_" d="M160.33,104.92c4.13-7.75,3.17-17.05-3.51-23.11
			c-0.56-0.51-0.59-0.92-0.36-1.58c2.91-8.46-0.61-18.07-8.28-22.6c-0.88-0.52-1.26-1.06-1.24-2.15
			c0.13-7.34-4.21-13.34-11.14-15.66c-0.54-0.18-1.03-0.71-1.39-1.19c-1.28-1.71-2.33-3.63-3.76-5.19
			c-6.51-7.11-17.53-7.49-24.57-0.88c-1.45,1.36-2.67,2.96-4.03,4.49c-0.29-0.42-0.56-0.86-0.88-1.27
			c-4.43-5.83-10.17-8.87-17.59-7.65c-6.02,0.98-10.3,4.58-13.28,9.81c-0.44,0.76-0.65,1.61-1.74,1.95
			c-6.96,2.2-11.29,8.24-11.17,15.59c0.02,1.08-0.34,1.63-1.23,2.16c-7.68,4.53-11.21,14.14-8.29,22.59
			c0.27,0.77,0.04,1.13-0.45,1.68c-1.22,1.37-2.54,2.72-3.43,4.3c-3.54,6.25-3.14,12.57,0.03,18.85c0.42,0.84,0.96,1.5,0.3,2.61
			c-4.42,7.36-3.58,15.5,2.11,22.01c0.3,0.34,0.49,0.93,0.45,1.37c-0.27,2.98-0.02,5.9,1.12,8.66c3.09,7.48,8.47,11.97,16.76,12.59
			c0.45,0.03,1,0.47,1.27,0.87c2.34,3.54,5.42,6.23,9.32,7.86c1.84,0.77,3.81,1.2,5.73,1.79c1.67,0,3.34,0,5.01,0
			c10.72,0,21.44,0,32.16,0c1.67,0,3.34,0,5.01,0c0.28-0.1,0.56-0.23,0.85-0.28c5.55-1.04,10.07-3.76,13.41-8.31
			c0.89-1.21,1.67-1.91,3.37-2.07c9.89-0.98,17.55-10.58,16.56-20.57c-0.1-0.98,0.14-1.61,0.78-2.32c5.16-5.64,6.1-14.57,2.14-21.03
			C159.6,107,159.67,106.16,160.33,104.92z"/>
	</defs>
	<clipPath id="SVGID_00000016040330303779654840000007968747833317237411_">
		<use xlink:href="#SVGID_00000163060365339848397600000011594827854892911795_"  style="overflow:visible;"/>
	</clipPath>
	<path style="clip-path:url(#SVGID_00000016040330303779654840000007968747833317237411_);fill:#FFFFFF;" d="M29.5,23.55v156.48
		h145.28V23.55H29.5z M35.44,97.46C35.67,97.39,58.1,90,63.5,75.32c0.99-2.69,2.04-5.41,3.21-8.08c-2.27-1.68-3.76-4.38-3.76-7.42
		c0-5.09,4.14-9.23,9.23-9.23c1.68,0,3.26,0.46,4.62,1.25c6.01-5.71,13.88-8.83,23.99-9.51c5.65-0.38,11.09,0.54,16.13,2.68
		c1.69-2.23,4.35-3.68,7.36-3.68c5.09,0,9.23,4.14,9.23,9.23c0,2.09-0.71,4.02-1.89,5.57c3.25,3.85,4.84,7.03,4.93,7.2
		c0.14,0.27,3.77,7.41,4.26,19.18c0.36,8.66,15.98,19.24,21.96,22.58l-1.67,2.99c-0.95-0.53-23.2-13.08-23.72-25.43
		c-0.46-10.96-3.86-17.72-3.9-17.78c-0.03-0.06-1.49-2.94-4.42-6.45c-1.4,0.86-3.04,1.36-4.8,1.36c-5.09,0-9.23-4.14-9.23-9.23
		c0-0.87,0.13-1.71,0.35-2.51c-4.48-1.87-9.28-2.65-14.38-2.31c-9.93,0.66-16.66,3.67-21.63,8.31c1.27,1.58,2.03,3.58,2.03,5.76
		c0,5.09-4.14,9.23-9.23,9.23c-0.83,0-1.62-0.12-2.39-0.32c-1.08,2.47-2.08,5.07-3.08,7.78c-5.98,16.25-29.24,23.9-30.22,24.22
		L35.44,97.46z M51.51,147.15c-0.71,0-1.37-0.44-1.62-1.15c-0.31-0.89,0.16-1.87,1.06-2.18c0.39-0.14,39.25-13.9,48.33-40.87
		c0.3-0.9,1.27-1.38,2.17-1.08c0.9,0.3,1.38,1.27,1.08,2.17c-4,11.87-14.01,23.08-28.96,32.41c-11.2,6.99-21.08,10.45-21.5,10.59
		C51.89,147.12,51.7,147.15,51.51,147.15z M65.68,153.74c0.1-0.04,9.87-3.75,20.32-11.01c0.39-0.27,0.78-0.56,1.18-0.84
		c-0.85-1.4-1.35-3.03-1.35-4.77c0-5.09,4.14-9.23,9.23-9.23c2.09,0,4.01,0.71,5.56,1.88c4.71-5.48,8.66-12.02,10.38-19.56
		c3.43-15.01,1.93-23.45,0.06-27.89c-0.11-0.27-0.23-0.53-0.35-0.78c-1.69,2.02-4.23,3.3-7.06,3.3c-2.8,0-5.31-1.26-7.01-3.24
		c-1.35,2.66-2.61,6.51-3.54,12.09c-1.86,11.11-11.09,21.24-26.69,29.3c-11.59,5.99-22.46,8.72-22.91,8.84l-0.83-3.32
		c0.43-0.11,42.96-10.97,47.05-35.38c1.1-6.59,2.79-11.63,5.03-15.09c-0.21-0.77-0.33-1.59-0.33-2.43c0-5.09,4.14-9.23,9.23-9.23
		c5.09,0,9.23,4.14,9.23,9.23c0,0.79-0.11,1.55-0.3,2.29c3.11,4.79,6.02,14.44,1.76,33.08c-1.7,7.44-5.58,14.64-11.41,21.35
		c0.86,1.4,1.36,3.04,1.36,4.8c0,5.09-4.14,9.23-9.23,9.23c-2.1,0-4.04-0.71-5.59-1.9c-0.53,0.38-1.05,0.77-1.59,1.14
		c-10.79,7.49-20.59,11.21-21,11.36L65.68,153.74z M135.36,160.65c-0.25,0.91-1.19,1.45-2.1,1.2c-6.72-1.84-20.1-12.24-24.22-15.52
		c-9.32,8.99-28.19,19.2-29.03,19.65c-0.26,0.14-0.54,0.21-0.81,0.21c-0.61,0-1.2-0.33-1.51-0.9c-0.45-0.83-0.14-1.87,0.7-2.32
		c0.21-0.11,20.84-11.27,29.29-20.12c0.62-0.65,1.63-0.71,2.32-0.14c0.17,0.14,17.03,13.89,24.16,15.84
		C135.08,158.8,135.61,159.74,135.36,160.65z M154.53,149.5c-0.2,0.77-0.89,1.28-1.65,1.28c-0.14,0-0.29-0.02-0.43-0.06
		c-1.17-0.3-28.63-7.65-37.18-22.88c-0.46-0.82-0.17-1.87,0.66-2.33c0.82-0.46,1.87-0.17,2.33,0.66
		c7.83,13.96,34.79,21.17,35.06,21.24C154.22,147.65,154.77,148.59,154.53,149.5z M161.77,138.8c-0.22,0.75-0.9,1.23-1.64,1.23
		c-0.16,0-0.32-0.02-0.48-0.07c-1.24-0.36-30.46-9.1-40.41-26.8c-0.46-0.82-0.17-1.87,0.65-2.33c0.82-0.46,1.87-0.17,2.33,0.65
		c9.27,16.48,38.1,25.11,38.39,25.19C161.51,136.95,162.03,137.9,161.77,138.8z M162.84,126.96c-8.13-3.34-18.62-10.66-26.66-19.67
		c-1.51,1.07-3.34,1.7-5.32,1.7c-5.09,0-9.23-4.14-9.23-9.23c0-3.37,1.83-6.32,4.54-7.93c-1.07-2.68-1.81-5.39-2.1-8.09
		c-0.94-8.81-2.9-14.66-6.16-18.41c-3.13-3.6-7.63-5.35-14.16-5.52c-12.16-0.31-17.17,8.78-23.7,29.28c1.9,1.69,3.11,4.15,3.11,6.89
		c0,5.09-4.14,9.23-9.23,9.23c-1.61,0-3.13-0.42-4.45-1.15c-11.51,9.45-27.46,12.59-28.4,12.77l-0.64-3.36
		c0.21-0.04,15.39-3.04,26.32-11.68c-1.29-1.59-2.07-3.61-2.07-5.81c0-5.09,4.14-9.23,9.23-9.23c1.09,0,2.13,0.2,3.1,0.55
		c5.9-18.41,11.45-31.33,26.81-30.91c7.55,0.2,12.84,2.33,16.65,6.7c3.75,4.31,5.97,10.75,6.99,20.3c0.26,2.44,0.93,4.88,1.9,7.28
		c0.49-0.08,0.98-0.13,1.49-0.13c5.09,0,9.23,4.14,9.23,9.23c0,1.86-0.56,3.59-1.51,5.04c8,8.94,18.53,16.11,25.56,18.99
		L162.84,126.96z"/>
	<path style="clip-path:url(#SVGID_00000016040330303779654840000007968747833317237411_);fill:#FFFFFF;" d="M100.47,135
		c-0.43-1.1-1.19-2.04-2.16-2.7c-0.93-0.63-2.05-0.99-3.25-0.99c-3.2,0-5.81,2.61-5.81,5.81c0,0.98,0.25,1.91,0.68,2.72
		c0.55,1.04,1.4,1.88,2.44,2.43c0.8,0.42,1.72,0.66,2.69,0.66c3.2,0,5.81-2.61,5.81-5.81C100.87,136.37,100.73,135.66,100.47,135z"
		/>
	<g style="clip-path:url(#SVGID_00000016040330303779654840000007968747833317237411_);">
		<g>
			<g>
				<path class="st0" d="M103.65,69.79c-2.8,0-5.14,1.99-5.69,4.63c-0.08,0.38-0.12,0.77-0.12,1.18c0,1.06,0.29,2.05,0.79,2.9
					c1.01,1.73,2.88,2.91,5.02,2.91c2.18,0,4.09-1.21,5.08-2.99c0.46-0.83,0.73-1.79,0.73-2.81c0-0.45-0.06-0.89-0.16-1.32
					C108.71,71.72,106.4,69.79,103.65,69.79z"/>
			</g>
			<g>
				<path class="st0" d="M75.86,90.51c-0.61-0.22-1.26-0.34-1.93-0.34c-3.2,0-5.81,2.61-5.81,5.81c0,1.35,0.46,2.58,1.23,3.57
					c0.73,0.94,1.74,1.65,2.91,2c0.53,0.16,1.08,0.25,1.66,0.25c3.2,0,5.81-2.61,5.81-5.81c0-1.25-0.4-2.4-1.07-3.35
					C77.97,91.66,77,90.91,75.86,90.51z"/>
			</g>
			<g>
				<path class="st0" d="M130.89,93.95c-0.01,0-0.02,0-0.03,0c-1.21,0-2.34,0.38-3.27,1.01c-1.53,1.05-2.54,2.81-2.54,4.79
					c0,3.2,2.61,5.81,5.81,5.81c1.14,0,2.2-0.33,3.1-0.9c1-0.63,1.8-1.56,2.26-2.66c0.29-0.69,0.45-1.45,0.45-2.24
					C136.67,96.57,134.08,93.97,130.89,93.95z"/>
			</g>
			<g>
				<path class="st0" d="M71.27,65.55c0.3,0.05,0.6,0.08,0.91,0.08c3.2,0,5.81-2.61,5.81-5.81c0-1.21-0.37-2.33-1-3.25
					c-0.64-0.94-1.56-1.69-2.63-2.12c-0.67-0.27-1.41-0.43-2.18-0.43c-3.2,0-5.81,2.61-5.81,5.81c0,1.66,0.7,3.15,1.82,4.21
					C69.03,64.82,70.09,65.36,71.27,65.55z"/>
			</g>
			<g>
				<path class="st0" d="M129.25,53.55c0.52-0.87,0.83-1.89,0.83-2.98c0-3.2-2.61-5.81-5.81-5.81c-1.65,0-3.13,0.69-4.19,1.8
					c-0.79,0.82-1.33,1.87-1.53,3.03c-0.05,0.32-0.09,0.64-0.09,0.98c0,3.2,2.61,5.81,5.81,5.81c0.87,0,1.69-0.2,2.43-0.54
					C127.77,55.34,128.65,54.54,129.25,53.55z"/>
			</g>
		</g>
	</g>
</g>
</svg>
