<?xml version="1.0" encoding="utf-8"?>
<!-- Generator: Adobe Illustrator 27.3.1, SVG Export Plug-In . SVG Version: 6.00 Build 0)  -->
<svg version="1.1" id="Capa_1" xmlns="http://www.w3.org/2000/svg" xmlns:xlink="http://www.w3.org/1999/xlink" x="0px" y="0px"
	 viewBox="0 0 578.04 184.85" style="enable-background:new 0 0 578.04 184.85;" xml:space="preserve">
<style type="text/css">
	.st0{fill:#FFFFFF;}
	.st1{fill:none;stroke:#000000;stroke-width:8;stroke-miterlimit:10;}
	.st2{fill:none;}
	.st3{fill:#586FB4;}
	.st4{fill:#688C5A;}
	.st5{fill:#A53737;}
	.st6{fill:#DA9B19;}
	.st7{fill:#78549E;}
	.st8{fill:#3A3A3A;}
	.st9{fill:#5659A3;}
	.st10{clip-path:url(#SVGID_00000148630890304914961030000004771844981690535590_);fill:#5659A3;}
	
		.st11{clip-path:url(#SVGID_00000148630890304914961030000004771844981690535590_);fill:none;stroke:#FFFFFF;stroke-width:9;stroke-miterlimit:10;}
	
		.st12{clip-path:url(#SVGID_00000148630890304914961030000004771844981690535590_);fill:none;stroke:#FFFFFF;stroke-width:9;stroke-linecap:round;stroke-miterlimit:10;}
	
		.st13{clip-path:url(#SVGID_00000148630890304914961030000004771844981690535590_);fill:none;stroke:#FFFFFF;stroke-width:9;stroke-linecap:round;stroke-linejoin:round;stroke-miterlimit:10;}
	
		.st14{clip-path:url(#SVGID_00000148630890304914961030000004771844981690535590_);fill:#5659A3;stroke:#FFFFFF;stroke-width:9;stroke-miterlimit:10;}
	.st15{clip-path:url(#SVGID_00000154392519129068522540000005528837566902335652_);}
	.st16{clip-path:url(#SVGID_00000152970184284956196460000009439108957699201447_);}
	.st17{clip-path:url(#SVGID_00000092435915728874703960000011562727568589405887_);}
	.st18{clip-path:url(#SVGID_00000018940395270600910820000000655671433178576056_);fill:#FFFFFF;}
	.st19{clip-path:url(#SVGID_00000018940395270600910820000000655671433178576056_);}
</style>
<g>
	<path class="st8" d="M198.97,90.57h-14.23V29.44h14.23V90.57z M227.7,65.5h-29.86V53.54h29.86V65.5z M226.65,29.44h14.15v61.12
		h-14.15V29.44z"/>
	<path class="st8" d="M274.15,91.26c-3.96,0-7.45-0.76-10.48-2.27c-3.03-1.51-5.39-3.84-7.07-6.99c-1.69-3.14-2.53-7.1-2.53-11.88
		V43.59h13.62v24.45c0,3.96,0.83,6.85,2.49,8.69c1.66,1.83,4,2.75,7.03,2.75c2.1,0,3.96-0.46,5.59-1.4
		c1.63-0.93,2.93-2.33,3.89-4.19c0.96-1.86,1.44-4.19,1.44-6.99V43.59h13.53v46.98h-12.92V77.55l2.36,3.84
		c-1.63,3.26-3.96,5.72-6.99,7.38C281.08,90.43,277.76,91.26,274.15,91.26z"/>
	<path class="st8" d="M337.63,91.26c-5.36,0-10.04-1.05-14.06-3.14s-7.13-4.96-9.34-8.6c-2.21-3.64-3.32-7.79-3.32-12.44
		c0-4.66,1.06-8.82,3.19-12.49c2.12-3.67,5.09-6.53,8.91-8.6c3.81-2.07,8.11-3.1,12.88-3.1c4.6,0,8.75,0.99,12.44,2.97
		c3.7,1.98,6.62,4.77,8.78,8.38c2.15,3.61,3.23,7.95,3.23,13.01c0,0.52-0.03,1.12-0.09,1.79c-0.06,0.67-0.12,1.3-0.17,1.88h-38.16
		v-7.95h31l-5.33,2.36c0.06-2.45-0.41-4.57-1.4-6.37c-0.99-1.8-2.36-3.22-4.1-4.24c-1.75-1.02-3.79-1.53-6.11-1.53
		c-2.33,0-4.38,0.51-6.16,1.53c-1.78,1.02-3.16,2.45-4.15,4.28c-0.99,1.83-1.48,4-1.48,6.5v2.1c0,2.62,0.58,4.89,1.75,6.81
		c1.16,1.92,2.76,3.39,4.8,4.41c2.04,1.02,4.48,1.53,7.33,1.53c2.44,0,4.61-0.38,6.5-1.13c1.89-0.76,3.62-1.89,5.2-3.41l7.25,7.86
		c-2.15,2.45-4.86,4.32-8.12,5.63C345.64,90.61,341.88,91.26,337.63,91.26z"/>
	<path class="st8" d="M369.42,90.57V25.77h13.62v64.79H369.42z"/>
	<path class="st8" d="M395.7,90.57V25.77h13.62v64.79H395.7z"/>
	<path class="st8" d="M436.48,91.26c-3.61,0-6.72-0.63-9.34-1.88c-2.62-1.25-4.64-2.95-6.07-5.11c-1.43-2.15-2.14-4.57-2.14-7.25
		c0-2.74,0.68-5.17,2.05-7.29c1.37-2.12,3.54-3.77,6.5-4.93c2.97-1.16,6.87-1.75,11.7-1.75h12.4v7.86h-11c-3.2,0-5.4,0.52-6.59,1.57
		c-1.19,1.05-1.79,2.36-1.79,3.93c0,1.75,0.68,3.13,2.05,4.15c1.37,1.02,3.22,1.53,5.54,1.53c2.33,0,4.41-0.52,6.24-1.57
		c1.83-1.05,3.13-2.65,3.89-4.8l2.1,6.38c-0.99,2.91-2.79,5.17-5.41,6.77C443.99,90.46,440.61,91.26,436.48,91.26z M450.8,90.57
		V81.4l-0.87-2.01V62.97c0-2.91-0.89-5.18-2.66-6.81c-1.78-1.63-4.5-2.45-8.16-2.45c-2.5,0-4.96,0.39-7.38,1.18
		c-2.42,0.79-4.5,1.85-6.24,3.19l-4.8-9.52c2.56-1.86,5.65-3.27,9.26-4.23c3.61-0.96,7.28-1.44,11-1.44
		c7.16,0,12.72,1.69,16.68,5.07c3.96,3.38,5.94,8.64,5.94,15.8v26.81H450.8z"/>
	<path class="st8" d="M491.66,91.26c-4.02,0-7.86-0.48-11.53-1.44c-3.67-0.96-6.61-2.17-8.82-3.62l4.45-9.69
		c2.21,1.28,4.79,2.34,7.73,3.19c2.94,0.84,5.83,1.27,8.69,1.27c3.14,0,5.37-0.38,6.68-1.13c1.31-0.76,1.96-1.8,1.96-3.14
		c0-1.11-0.51-1.93-1.53-2.49c-1.02-0.55-2.36-0.97-4.02-1.27c-1.66-0.29-3.51-0.58-5.54-0.87c-2.04-0.29-4.06-0.7-6.07-1.22
		c-2.01-0.52-3.87-1.27-5.59-2.23c-1.72-0.96-3.09-2.28-4.1-3.97c-1.02-1.69-1.53-3.87-1.53-6.55c0-2.97,0.87-5.6,2.62-7.9
		c1.75-2.3,4.22-4.09,7.42-5.37c3.2-1.28,7.07-1.92,11.61-1.92c3.26,0,6.53,0.37,9.82,1.09c3.29,0.73,6.07,1.73,8.34,3.01
		l-4.63,9.69c-2.21-1.28-4.47-2.18-6.77-2.71c-2.3-0.52-4.5-0.79-6.59-0.79c-3.14,0-5.41,0.41-6.81,1.22
		c-1.4,0.82-2.1,1.86-2.1,3.14c0,1.17,0.52,2.05,1.57,2.66s2.41,1.06,4.1,1.35c1.69,0.29,3.55,0.58,5.59,0.87
		c2.04,0.29,4.04,0.7,6.02,1.22c1.98,0.52,3.83,1.27,5.54,2.23c1.72,0.96,3.08,2.29,4.1,3.97c1.02,1.69,1.53,3.87,1.53,6.55
		c0,2.85-0.87,5.4-2.62,7.64c-1.75,2.24-4.26,4-7.55,5.28C500.38,90.62,496.38,91.26,491.66,91.26z"/>
</g>
<g>
	<path class="st9" d="M191.82,152.03c-2.6,0-4.93-0.59-7.02-1.77c-2.08-1.18-3.72-2.82-4.92-4.94c-1.2-2.12-1.79-4.61-1.79-7.48
		c0-2.87,0.6-5.36,1.79-7.48c1.19-2.12,2.83-3.76,4.92-4.94c2.08-1.18,4.42-1.77,7.02-1.77c2.32,0,4.35,0.51,6.09,1.54
		c1.74,1.02,3.09,2.58,4.05,4.66c0.96,2.08,1.43,4.75,1.43,7.99c0,3.21-0.46,5.87-1.38,7.99s-2.25,3.68-3.97,4.69
		C196.31,151.52,194.24,152.03,191.82,152.03z M193.15,145.47c1.33,0,2.53-0.3,3.58-0.9c1.06-0.6,1.9-1.48,2.54-2.64
		c0.63-1.16,0.95-2.53,0.95-4.1c0-1.6-0.32-2.97-0.95-4.1c-0.63-1.13-1.48-1.99-2.54-2.59c-1.06-0.6-2.25-0.9-3.58-0.9
		c-1.3,0-2.48,0.3-3.53,0.9c-1.06,0.6-1.9,1.46-2.54,2.59c-0.63,1.13-0.95,2.49-0.95,4.1c0,1.57,0.32,2.94,0.95,4.1
		c0.63,1.16,1.48,2.04,2.54,2.64C190.67,145.17,191.85,145.47,193.15,145.47z M200.42,151.62v-5.63l0.15-8.19l-0.51-8.14v-16.03
		h7.99v38H200.42z"/>
	<path class="st9" d="M229.1,152.03c-3.14,0-5.89-0.62-8.25-1.84c-2.36-1.23-4.18-2.91-5.48-5.04c-1.3-2.13-1.95-4.57-1.95-7.3
		s0.62-5.17,1.87-7.32c1.25-2.15,2.99-3.83,5.22-5.04c2.24-1.21,4.75-1.82,7.55-1.82c2.7,0,5.13,0.58,7.3,1.74
		c2.17,1.16,3.88,2.8,5.15,4.92c1.26,2.12,1.9,4.66,1.9,7.63c0,0.31-0.02,0.66-0.05,1.05c-0.03,0.39-0.07,0.76-0.1,1.1h-22.38v-4.66
		h18.18l-3.12,1.38c0.03-1.43-0.24-2.68-0.82-3.74c-0.58-1.06-1.38-1.89-2.41-2.48c-1.02-0.6-2.22-0.9-3.58-0.9
		c-1.37,0-2.57,0.3-3.61,0.9c-1.04,0.6-1.85,1.43-2.43,2.51c-0.58,1.08-0.87,2.35-0.87,3.82v1.23c0,1.54,0.34,2.87,1.02,4
		c0.68,1.13,1.62,1.99,2.82,2.59c1.19,0.6,2.63,0.9,4.3,0.9c1.43,0,2.71-0.22,3.82-0.67c1.11-0.44,2.13-1.11,3.05-2l4.25,4.61
		c-1.26,1.43-2.85,2.54-4.76,3.3C233.79,151.64,231.59,152.03,229.1,152.03z"/>
	<path class="st9" d="M262.8,151.62v-35.85h15.52c3.21,0,5.97,0.52,8.3,1.56c2.32,1.04,4.11,2.54,5.38,4.48
		c1.26,1.95,1.89,4.25,1.89,6.91c0,2.7-0.63,5.01-1.89,6.94c-1.26,1.93-3.06,3.42-5.38,4.48c-2.32,1.06-5.09,1.59-8.3,1.59h-10.96
		l3.79-3.74v13.62H262.8z M271.15,138.92l-3.79-3.94h10.5c2.53,0,4.44-0.55,5.74-1.64c1.3-1.09,1.95-2.63,1.95-4.61
		c0-1.98-0.65-3.51-1.95-4.58c-1.3-1.08-3.21-1.61-5.74-1.61h-10.5l3.79-3.94V138.92z"/>
	<path class="st9" d="M299.21,151.62v-27.55h7.63v7.84l-1.08-2.3c0.82-1.95,2.13-3.42,3.94-4.43c1.81-1.01,4.01-1.51,6.61-1.51v7.43
		c-0.31-0.07-0.61-0.12-0.9-0.15c-0.29-0.03-0.57-0.05-0.85-0.05c-2.25,0-4.05,0.63-5.38,1.9c-1.33,1.26-2,3.21-2,5.84v13.01H299.21
		z"/>
	<path class="st9" d="M333.88,152.03c-2.9,0-5.49-0.62-7.76-1.84c-2.27-1.23-4.05-2.91-5.35-5.04c-1.3-2.13-1.95-4.57-1.95-7.3
		c0-2.77,0.65-5.22,1.95-7.35c1.3-2.13,3.08-3.81,5.35-5.02c2.27-1.21,4.86-1.82,7.76-1.82c2.94,0,5.55,0.61,7.84,1.82
		c2.29,1.21,4.08,2.89,5.38,5.02c1.3,2.13,1.95,4.58,1.95,7.35s-0.65,5.21-1.95,7.32c-1.3,2.12-3.09,3.79-5.38,5.02
		C339.43,151.41,336.82,152.03,333.88,152.03z M333.88,145.47c1.37,0,2.57-0.3,3.61-0.9c1.04-0.6,1.88-1.48,2.51-2.64
		c0.63-1.16,0.95-2.53,0.95-4.1c0-1.6-0.31-2.97-0.95-4.1c-0.63-1.13-1.47-1.99-2.51-2.59s-2.23-0.9-3.56-0.9s-2.53,0.3-3.59,0.9
		s-1.9,1.46-2.53,2.59c-0.63,1.13-0.95,2.49-0.95,4.1c0,1.57,0.32,2.94,0.95,4.1c0.63,1.16,1.47,2.04,2.53,2.64
		C331.41,145.17,332.59,145.47,333.88,145.47z"/>
	<path class="st9" d="M354.37,161.55v-37.49H362v5.63l-0.15,8.19l0.51,8.14v15.52H354.37z M370.6,152.03c-2.29,0-4.3-0.51-6.04-1.54
		s-3.1-2.59-4.07-4.69c-0.97-2.1-1.46-4.75-1.46-7.96c0-3.24,0.46-5.91,1.38-7.99c0.92-2.08,2.26-3.64,4.02-4.66
		c1.76-1.02,3.82-1.54,6.17-1.54c2.63,0,4.98,0.59,7.04,1.77c2.07,1.18,3.7,2.83,4.92,4.94s1.82,4.61,1.82,7.48
		c0,2.9-0.61,5.4-1.82,7.5c-1.21,2.1-2.85,3.74-4.92,4.92C375.58,151.44,373.23,152.03,370.6,152.03z M369.27,145.47
		c1.33,0,2.52-0.31,3.56-0.92c1.04-0.62,1.88-1.49,2.51-2.64c0.63-1.14,0.95-2.5,0.95-4.07c0-1.6-0.32-2.97-0.95-4.1
		c-0.63-1.13-1.47-1.99-2.51-2.59c-1.04-0.6-2.23-0.9-3.56-0.9c-1.33,0-2.53,0.3-3.58,0.9c-1.06,0.6-1.9,1.46-2.54,2.59
		s-0.95,2.49-0.95,4.1c0,1.57,0.32,2.93,0.95,4.07c0.63,1.14,1.48,2.02,2.54,2.64C366.75,145.16,367.94,145.47,369.27,145.47z"/>
	<path class="st9" d="M402.77,152.03c-2.9,0-5.49-0.62-7.76-1.84c-2.27-1.23-4.05-2.91-5.35-5.04c-1.3-2.13-1.95-4.57-1.95-7.3
		c0-2.77,0.65-5.22,1.95-7.35c1.3-2.13,3.08-3.81,5.35-5.02c2.27-1.21,4.86-1.82,7.76-1.82c2.94,0,5.55,0.61,7.84,1.82
		c2.29,1.21,4.08,2.89,5.38,5.02c1.3,2.13,1.95,4.58,1.95,7.35s-0.65,5.21-1.95,7.32c-1.3,2.12-3.09,3.79-5.38,5.02
		C408.31,151.41,405.7,152.03,402.77,152.03z M402.77,145.47c1.37,0,2.57-0.3,3.61-0.9c1.04-0.6,1.88-1.48,2.51-2.64
		c0.63-1.16,0.95-2.53,0.95-4.1c0-1.6-0.32-2.97-0.95-4.1s-1.47-1.99-2.51-2.59s-2.23-0.9-3.56-0.9c-1.33,0-2.53,0.3-3.59,0.9
		s-1.9,1.46-2.53,2.59c-0.63,1.13-0.95,2.49-0.95,4.1c0,1.57,0.32,2.94,0.95,4.1c0.63,1.16,1.48,2.04,2.53,2.64
		C400.29,145.17,401.47,145.47,402.77,145.47z M398,120.53l6.91-7.38h8.55l-9.22,7.38H398z"/>
	<path class="st9" d="M432.52,152.03c-2.36,0-4.61-0.28-6.76-0.85c-2.15-0.56-3.88-1.27-5.17-2.12l2.61-5.68
		c1.3,0.75,2.81,1.37,4.53,1.87c1.72,0.5,3.42,0.74,5.1,0.74c1.84,0,3.15-0.22,3.92-0.67c0.77-0.44,1.15-1.06,1.15-1.84
		c0-0.65-0.3-1.13-0.9-1.46c-0.6-0.32-1.38-0.57-2.36-0.74c-0.97-0.17-2.06-0.34-3.25-0.51c-1.2-0.17-2.38-0.41-3.56-0.72
		c-1.18-0.31-2.27-0.74-3.28-1.31c-1.01-0.56-1.81-1.34-2.41-2.33c-0.6-0.99-0.9-2.27-0.9-3.84c0-1.74,0.51-3.29,1.54-4.63
		c1.02-1.35,2.47-2.4,4.35-3.15c1.88-0.75,4.15-1.13,6.81-1.13c1.91,0,3.83,0.21,5.76,0.64c1.93,0.43,3.56,1.02,4.89,1.77
		l-2.71,5.68c-1.3-0.75-2.62-1.28-3.97-1.59s-2.64-0.46-3.87-0.46c-1.84,0-3.18,0.24-4,0.72c-0.82,0.48-1.23,1.09-1.23,1.84
		c0,0.68,0.31,1.2,0.92,1.56c0.62,0.36,1.42,0.62,2.41,0.79s2.08,0.34,3.28,0.51c1.19,0.17,2.37,0.41,3.53,0.72
		c1.16,0.31,2.25,0.74,3.25,1.31s1.81,1.34,2.41,2.33s0.9,2.27,0.9,3.84c0,1.67-0.51,3.17-1.54,4.48s-2.5,2.35-4.43,3.1
		C437.64,151.65,435.29,152.03,432.52,152.03z"/>
	<path class="st9" d="M454.44,120.22c-1.5,0-2.71-0.43-3.64-1.28s-1.38-1.91-1.38-3.18c0-1.26,0.46-2.32,1.38-3.17
		s2.13-1.28,3.64-1.28c1.47,0,2.67,0.4,3.61,1.2c0.94,0.8,1.41,1.84,1.41,3.1c0,1.33-0.46,2.43-1.38,3.3
		C457.16,119.79,455.94,120.22,454.44,120.22z M450.45,151.62v-27.55h7.99v27.55H450.45z"/>
	<path class="st9" d="M462.59,130.82v-6.15h19.1v6.15H462.59z M477.13,152.03c-3.24,0-5.77-0.83-7.58-2.48
		c-1.81-1.66-2.71-4.12-2.71-7.4v-24.17h8.04v24.02c0,1.16,0.3,2.07,0.9,2.71c0.6,0.65,1.41,0.97,2.43,0.97
		c1.3,0,2.39-0.34,3.28-1.02l2.1,5.63c-0.79,0.58-1.75,1.02-2.89,1.31C479.55,151.88,478.36,152.03,477.13,152.03z"/>
	<path class="st9" d="M500.33,152.03c-2.9,0-5.49-0.62-7.76-1.84c-2.27-1.23-4.05-2.91-5.35-5.04c-1.3-2.13-1.95-4.57-1.95-7.3
		c0-2.77,0.65-5.22,1.95-7.35c1.3-2.13,3.08-3.81,5.35-5.02c2.27-1.21,4.86-1.82,7.76-1.82c2.94,0,5.55,0.61,7.84,1.82
		c2.29,1.21,4.08,2.89,5.38,5.02c1.3,2.13,1.95,4.58,1.95,7.35s-0.65,5.21-1.95,7.32c-1.3,2.12-3.09,3.79-5.38,5.02
		C505.88,151.41,503.27,152.03,500.33,152.03z M500.33,145.47c1.37,0,2.57-0.3,3.61-0.9c1.04-0.6,1.88-1.48,2.51-2.64
		c0.63-1.16,0.95-2.53,0.95-4.1c0-1.6-0.32-2.97-0.95-4.1s-1.47-1.99-2.51-2.59s-2.23-0.9-3.56-0.9c-1.33,0-2.53,0.3-3.59,0.9
		s-1.9,1.46-2.53,2.59c-0.63,1.13-0.95,2.49-0.95,4.1c0,1.57,0.32,2.94,0.95,4.1c0.63,1.16,1.48,2.04,2.53,2.64
		C497.85,145.17,499.03,145.47,500.33,145.47z"/>
</g>
<g>
	<defs>
		<path id="SVGID_00000024701768452935696470000014177962023469946045_" d="M160.33,100.11c4.13-7.75,3.17-17.05-3.51-23.11
			c-0.56-0.51-0.59-0.92-0.36-1.58c2.91-8.46-0.61-18.07-8.28-22.6c-0.88-0.52-1.26-1.06-1.24-2.15
			c0.13-7.34-4.21-13.34-11.14-15.66c-0.54-0.18-1.03-0.71-1.39-1.19c-1.28-1.71-2.33-3.63-3.76-5.19
			c-6.51-7.11-17.53-7.49-24.57-0.88c-1.45,1.36-2.67,2.96-4.03,4.49c-0.29-0.42-0.56-0.86-0.88-1.27
			c-4.43-5.83-10.17-8.87-17.59-7.65c-6.02,0.98-10.3,4.58-13.28,9.81c-0.44,0.76-0.65,1.61-1.74,1.95
			c-6.96,2.2-11.29,8.24-11.17,15.59c0.02,1.08-0.34,1.63-1.23,2.16c-7.68,4.53-11.21,14.14-8.29,22.59
			c0.27,0.77,0.04,1.13-0.45,1.68c-1.22,1.37-2.54,2.72-3.43,4.3c-3.54,6.25-3.14,12.57,0.03,18.85c0.42,0.84,0.96,1.5,0.3,2.61
			c-4.42,7.36-3.58,15.5,2.11,22.01c0.3,0.34,0.49,0.93,0.45,1.37c-0.27,2.98-0.02,5.9,1.12,8.66c3.09,7.48,8.47,11.97,16.76,12.59
			c0.45,0.03,1,0.47,1.27,0.87c2.34,3.54,5.42,6.23,9.32,7.86c1.84,0.77,3.81,1.2,5.73,1.79c1.67,0,3.34,0,5.01,0
			c10.72,0,21.44,0,32.16,0c1.67,0,3.34,0,5.01,0c0.28-0.1,0.56-0.23,0.85-0.28c5.55-1.04,10.07-3.76,13.41-8.31
			c0.89-1.21,1.67-1.91,3.37-2.07c9.89-0.98,17.55-10.58,16.56-20.57c-0.1-0.98,0.14-1.61,0.78-2.32c5.16-5.64,6.1-14.57,2.14-21.03
			C159.6,102.18,159.67,101.34,160.33,100.11z"/>
	</defs>
	<clipPath id="SVGID_00000085957196004618354940000009261549197051124111_">
		<use xlink:href="#SVGID_00000024701768452935696470000014177962023469946045_"  style="overflow:visible;"/>
	</clipPath>
	<g style="clip-path:url(#SVGID_00000085957196004618354940000009261549197051124111_);">
		<rect x="27.54" y="6.66" class="st9" width="145.28" height="156.48"/>
	</g>
	<g style="clip-path:url(#SVGID_00000085957196004618354940000009261549197051124111_);">
		<path class="st0" d="M162.84,122.14c-14.6-6-36.82-24.84-38.78-43.22c-0.94-8.81-2.9-14.66-6.16-18.41
			c-3.13-3.6-7.63-5.35-14.16-5.52c-12.21-0.31-17.21,8.86-23.79,29.56c-6.72,21.15-37.57,27.22-38.88,27.47l-0.64-3.36
			c0.3-0.06,30.15-5.94,36.25-25.14c6.02-18.96,11.5-32.37,27.14-31.94c7.55,0.2,12.84,2.33,16.65,6.7
			c3.75,4.31,5.97,10.75,6.99,20.3c1.88,17.65,24.53,35.43,36.67,40.42L162.84,122.14z"/>
	</g>
	<g style="clip-path:url(#SVGID_00000085957196004618354940000009261549197051124111_);">
		<path class="st0" d="M161.1,103.28c-0.95-0.53-23.2-13.08-23.72-25.43c-0.46-10.96-3.86-17.72-3.9-17.78
			c-0.04-0.08-2.66-5.29-8-10.23c-7.06-6.52-15.29-9.52-24.47-8.91C79.2,42.39,72.8,55.15,66.72,71.69
			c-5.98,16.25-29.24,23.9-30.22,24.22l-1.05-3.26c0.23-0.07,22.66-7.46,28.06-22.14c2.83-7.67,6.05-15.68,11.62-21.78
			c6.2-6.8,14.59-10.47,25.67-11.21c10.06-0.67,19.44,2.75,27.12,9.9c5.76,5.36,8.53,10.88,8.64,11.11
			c0.14,0.27,3.77,7.41,4.26,19.18c0.36,8.66,15.98,19.24,21.96,22.58L161.1,103.28z"/>
	</g>
	<g style="clip-path:url(#SVGID_00000085957196004618354940000009261549197051124111_);">
		<path class="st0" d="M160.13,135.22c-0.16,0-0.32-0.02-0.48-0.07c-1.24-0.36-30.46-9.1-40.41-26.8c-0.46-0.82-0.17-1.87,0.65-2.33
			c0.82-0.46,1.87-0.17,2.33,0.65c9.27,16.48,38.1,25.11,38.39,25.19c0.91,0.27,1.43,1.22,1.16,2.12
			C161.55,134.73,160.87,135.22,160.13,135.22z"/>
	</g>
	<g style="clip-path:url(#SVGID_00000085957196004618354940000009261549197051124111_);">
		<path class="st0" d="M152.88,145.96c-0.14,0-0.29-0.02-0.43-0.06c-1.17-0.3-28.63-7.65-37.18-22.88
			c-0.46-0.82-0.17-1.87,0.66-2.33c0.82-0.46,1.87-0.17,2.33,0.66c7.83,13.96,34.79,21.17,35.06,21.24
			c0.91,0.24,1.46,1.18,1.22,2.09C154.33,145.45,153.64,145.96,152.88,145.96z"/>
	</g>
	<g style="clip-path:url(#SVGID_00000085957196004618354940000009261549197051124111_);">
		<path class="st0" d="M79.21,161.37c-0.61,0-1.2-0.33-1.51-0.9c-0.45-0.83-0.14-1.87,0.7-2.32c0.21-0.11,20.84-11.27,29.29-20.12
			c0.62-0.65,1.63-0.71,2.32-0.14c0.17,0.14,17.03,13.89,24.16,15.84c0.91,0.25,1.45,1.19,1.2,2.1c-0.25,0.91-1.19,1.45-2.1,1.2
			c-6.72-1.84-20.1-12.24-24.22-15.52c-9.32,8.99-28.19,19.2-29.03,19.65C79.76,161.3,79.48,161.37,79.21,161.37z"/>
	</g>
	<g style="clip-path:url(#SVGID_00000085957196004618354940000009261549197051124111_);">
		<path class="st0" d="M51.51,142.33c-0.71,0-1.37-0.44-1.62-1.15c-0.31-0.89,0.16-1.87,1.06-2.18c0.39-0.14,39.25-13.9,48.33-40.87
			c0.3-0.9,1.27-1.38,2.17-1.08c0.9,0.3,1.38,1.27,1.08,2.17c-4,11.87-14.01,23.08-28.96,32.41c-11.2,6.99-21.08,10.45-21.5,10.59
			C51.89,142.3,51.7,142.33,51.51,142.33z"/>
	</g>
	<g style="clip-path:url(#SVGID_00000085957196004618354940000009261549197051124111_);">
		<path class="st0" d="M66.89,152.13l-1.2-3.2c0.1-0.04,9.87-3.75,20.32-11.01c9.53-6.62,21.6-17.64,25-32.53
			c3.44-15.01,1.93-23.45,0.06-27.89c-1.84-4.38-4.28-5.6-4.3-5.61l-0.21-0.12c-0.09-0.05-2.46-1.49-5.18-0.27
			c-2.65,1.2-6.23,5.18-8.27,17.37c-1.86,11.11-11.09,21.24-26.69,29.3c-11.59,5.99-22.46,8.72-22.91,8.84l-0.83-3.32
			c0.43-0.11,42.96-10.97,47.05-35.38c1.85-11.03,5.32-17.75,10.31-19.96c4.07-1.8,7.62,0.1,8.27,0.48
			c1.37,0.7,12.84,7.58,6.04,37.32c-2.9,12.65-12.04,24.62-26.45,34.62C77.1,148.26,67.3,151.98,66.89,152.13z"/>
	</g>
	<g style="clip-path:url(#SVGID_00000085957196004618354940000009261549197051124111_);">
		<g>
			<circle class="st9" cx="103.65" cy="70.79" r="7.52"/>
		</g>
		<g>
			<path class="st0" d="M103.65,80.02c-5.09,0-9.23-4.14-9.23-9.23s4.14-9.23,9.23-9.23c5.09,0,9.23,4.14,9.23,9.23
				S108.74,80.02,103.65,80.02z M103.65,64.98c-3.2,0-5.81,2.61-5.81,5.81c0,3.2,2.61,5.81,5.81,5.81c3.2,0,5.81-2.61,5.81-5.81
				C109.46,67.58,106.86,64.98,103.65,64.98z"/>
		</g>
	</g>
	<g style="clip-path:url(#SVGID_00000085957196004618354940000009261549197051124111_);">
		<g>
			<circle class="st9" cx="73.92" cy="91.16" r="7.52"/>
		</g>
		<g>
			<path class="st0" d="M73.92,100.39c-5.09,0-9.23-4.14-9.23-9.23s4.14-9.23,9.23-9.23c5.09,0,9.23,4.14,9.23,9.23
				S79.01,100.39,73.92,100.39z M73.92,85.35c-3.2,0-5.81,2.61-5.81,5.81s2.61,5.81,5.81,5.81c3.2,0,5.81-2.61,5.81-5.81
				S77.13,85.35,73.92,85.35z"/>
		</g>
	</g>
	<g style="clip-path:url(#SVGID_00000085957196004618354940000009261549197051124111_);">
		<g>
			<circle class="st9" cx="130.86" cy="94.94" r="7.52"/>
		</g>
		<g>
			<path class="st0" d="M130.86,104.18c-5.09,0-9.23-4.14-9.23-9.23s4.14-9.23,9.23-9.23c5.09,0,9.23,4.14,9.23,9.23
				S135.95,104.18,130.86,104.18z M130.86,89.13c-3.2,0-5.81,2.61-5.81,5.81s2.61,5.81,5.81,5.81s5.81-2.61,5.81-5.81
				S134.06,89.13,130.86,89.13z"/>
		</g>
	</g>
	<g style="clip-path:url(#SVGID_00000085957196004618354940000009261549197051124111_);">
		<g>
			<circle class="st9" cx="95.06" cy="132.3" r="7.52"/>
		</g>
		<g>
			<path class="st0" d="M95.06,141.53c-5.09,0-9.23-4.14-9.23-9.23c0-5.09,4.14-9.23,9.23-9.23c5.09,0,9.23,4.14,9.23,9.23
				C104.3,137.39,100.15,141.53,95.06,141.53z M95.06,126.49c-3.2,0-5.81,2.61-5.81,5.81c0,3.2,2.61,5.81,5.81,5.81
				c3.2,0,5.81-2.61,5.81-5.81C100.87,129.1,98.27,126.49,95.06,126.49z"/>
		</g>
	</g>
	<g style="clip-path:url(#SVGID_00000085957196004618354940000009261549197051124111_);">
		<g>
			<circle class="st9" cx="72.18" cy="55.01" r="7.52"/>
		</g>
		<g>
			<path class="st0" d="M72.18,64.24c-5.09,0-9.23-4.14-9.23-9.23s4.14-9.23,9.23-9.23s9.23,4.14,9.23,9.23S77.27,64.24,72.18,64.24
				z M72.18,49.2c-3.2,0-5.81,2.61-5.81,5.81s2.61,5.81,5.81,5.81c3.2,0,5.81-2.61,5.81-5.81S75.39,49.2,72.18,49.2z"/>
		</g>
	</g>
	<g style="clip-path:url(#SVGID_00000085957196004618354940000009261549197051124111_);">
		<g>
			<circle class="st9" cx="124.28" cy="45.75" r="7.52"/>
		</g>
		<g>
			<path class="st0" d="M124.28,54.98c-5.09,0-9.23-4.14-9.23-9.23s4.14-9.23,9.23-9.23s9.23,4.14,9.23,9.23
				S129.37,54.98,124.28,54.98z M124.28,39.94c-3.2,0-5.81,2.61-5.81,5.81c0,3.2,2.61,5.81,5.81,5.81c3.2,0,5.81-2.61,5.81-5.81
				C130.09,42.55,127.48,39.94,124.28,39.94z"/>
		</g>
	</g>
</g>
</svg>
